# This file uses centimeters as units for non-parametric coordinates.

v -0.073622 -0.606121 -0.421980
v 0.076394 -0.606121 -0.421980
v 0.076394 -0.606121 0.428034
v -0.073622 -0.606121 0.428034
v 0.076394 -0.431128 0.603027
v 0.076394 0.418886 0.603027
v -0.073622 0.418886 0.603027
v -0.073622 -0.431128 0.603027
v -0.248614 0.418886 0.428034
v -0.248614 0.418886 -0.421980
v -0.248614 -0.431128 -0.421980
v -0.248614 -0.431128 0.428034
v 0.251386 -0.431128 -0.421980
v 0.251386 0.418886 -0.421980
v 0.251386 0.418886 0.428034
v 0.251386 -0.431128 0.428034
v 0.076394 0.593879 0.428034
v 0.076394 0.593879 -0.421980
v -0.073622 0.593879 -0.421980
v -0.073622 0.593879 0.428034
v 0.076394 0.418886 -0.596973
v 0.076394 -0.431128 -0.596973
v -0.073622 -0.431128 -0.596973
v -0.073622 0.418886 -0.596973
vt 0.911591 0.111237
vt 0.911591 0.226561
vt 0.258139 0.226560
vt 0.258139 0.111235
vt 0.184162 0.308091
vt 0.184163 0.901003
vt 0.079523 0.901003
vt 0.079522 0.308091
vt 0.258135 0.308081
vt 0.911585 0.307625
vt 0.911590 0.900547
vt 0.258140 0.901002
vt 0.911590 0.308091
vt 0.258139 0.308090
vt 0.257997 0.111227
vt 0.911449 0.110770
vt 0.911527 0.226095
vt 0.258079 0.226551
vt 0.184009 0.900935
vt 0.184009 0.308479
vt 0.079450 0.308479
vt 0.079450 0.900935
vt 0.911591 0.029706
vt 0.258140 0.029705
vt 0.176609 0.111235
vt 0.176609 0.226559
vt 0.005545 0.308091
vt 0.005546 0.901003
vt 0.176549 0.226609
vt 0.176466 0.111286
vt 0.258197 0.982533
vt 0.911648 0.982076
vt 0.005530 0.900935
vt 0.005530 0.308479
vt 0.993056 0.226041
vt 0.992979 0.110718
vt 0.985510 0.900547
vt 0.985510 0.308091
vt 0.993121 0.111236
vt 0.993121 0.226561
vt 0.217374 0.040628
vt 0.217373 0.297167
vt 0.217364 0.297187
vt 0.217182 0.040649
vt 0.952339 0.296675
vt 0.952167 0.040138
vt 0.952356 0.040629
vt 0.952356 0.297168
vt 0.911590 0.900547
vt 0.258140 0.901002
vt 0.258140 0.901002
vt 0.258140 0.901002
vt 0.911590 0.900547
vt 0.911590 0.900547
vn 0.000000 1.000000 0.000000
vn 0.000000 1.000000 0.000000
vn 0.000000 1.000000 0.000000
vn 0.000000 1.000000 0.000000
vn 0.000000 0.000000 -1.000000
vn 0.000000 0.000000 -1.000000
vn 0.000000 0.000000 -1.000000
vn 0.000000 0.000000 -1.000000
vn 1.000000 0.000000 0.000000
vn 1.000000 0.000000 0.000000
vn 1.000000 0.000000 0.000000
vn 1.000000 0.000000 0.000000
vn -1.000000 0.000000 0.000000
vn -1.000000 0.000000 0.000000
vn -1.000000 0.000000 0.000000
vn -1.000000 0.000000 0.000000
vn 0.000000 -1.000000 0.000000
vn 0.000000 -1.000000 0.000000
vn 0.000000 -1.000000 0.000000
vn 0.000000 -1.000000 0.000000
vn 0.000000 0.000000 1.000000
vn 0.000000 0.000000 1.000000
vn 0.000000 0.000000 1.000000
vn 0.000000 0.000000 1.000000
vn 0.707109 0.707105 0.000000
vn 0.707109 0.707105 0.000000
vn 0.707109 0.707105 0.000000
vn 0.707109 0.707105 0.000000
vn 0.000000 0.707107 -0.707107
vn 0.000000 0.707107 -0.707107
vn 0.000000 0.707107 -0.707107
vn 0.000000 0.707107 -0.707107
vn 0.707109 0.000000 -0.707105
vn 0.707109 0.000000 -0.707105
vn 0.707109 0.000000 -0.707105
vn 0.707109 0.000000 -0.707105
vn -0.707109 0.707105 0.000000
vn -0.707109 0.707105 0.000000
vn -0.707109 0.707105 0.000000
vn -0.707109 0.707105 0.000000
vn -0.707109 0.000000 -0.707105
vn -0.707109 0.000000 -0.707105
vn -0.707109 0.000000 -0.707105
vn -0.707109 0.000000 -0.707105
vn 0.707109 -0.707105 0.000000
vn 0.707109 -0.707105 0.000000
vn 0.707109 -0.707105 0.000000
vn 0.707109 -0.707105 0.000000
vn 0.000000 -0.707107 -0.707107
vn 0.000000 -0.707107 -0.707107
vn 0.000000 -0.707107 -0.707107
vn 0.000000 -0.707107 -0.707107
vn -0.707109 -0.707105 0.000000
vn -0.707109 -0.707105 0.000000
vn -0.707109 -0.707105 0.000000
vn -0.707109 -0.707105 0.000000
vn 0.707109 0.000000 0.707105
vn 0.707109 0.000000 0.707105
vn 0.707109 0.000000 0.707105
vn 0.707109 0.000000 0.707105
vn 0.000000 -0.707107 0.707107
vn 0.000000 -0.707107 0.707107
vn 0.000000 -0.707107 0.707107
vn 0.000000 -0.707107 0.707107
vn -0.707109 0.000000 0.707105
vn -0.707109 0.000000 0.707105
vn -0.707109 0.000000 0.707105
vn -0.707109 0.000000 0.707105
vn 0.000000 0.707107 0.707107
vn 0.000000 0.707107 0.707107
vn 0.000000 0.707107 0.707107
vn 0.000000 0.707107 0.707107
vn 0.577353 0.577349 -0.577349
vn 0.577353 0.577349 -0.577349
vn 0.577353 0.577349 -0.577349
vn -0.577353 0.577349 -0.577349
vn -0.577353 0.577349 -0.577349
vn -0.577353 0.577349 -0.577349
vn 0.577353 -0.577349 -0.577349
vn 0.577353 -0.577349 -0.577349
vn 0.577353 -0.577349 -0.577349
vn -0.577353 -0.577349 -0.577349
vn -0.577353 -0.577349 -0.577349
vn -0.577353 -0.577349 -0.577349
vn 0.577353 -0.577349 0.577349
vn 0.577353 -0.577349 0.577349
vn 0.577353 -0.577349 0.577349
vn -0.577353 -0.577349 0.577349
vn -0.577353 -0.577349 0.577349
vn -0.577353 -0.577349 0.577349
vn 0.577353 0.577349 0.577349
vn 0.577353 0.577349 0.577349
vn 0.577353 0.577349 0.577349
vn -0.577353 0.577349 0.577349
vn -0.577353 0.577349 0.577349
vn -0.577353 0.577349 0.577349
s off
f 1/1/1 4/4/2 3/3/3 2/2/4
f 5/5/5 8/8/6 7/7/7 6/6/8
f 9/9/9 12/12/10 11/11/11 10/10/12
f 13/13/13 16/14/14 15/50/15 14/49/16
f 17/15/17 20/18/18 19/17/19 18/16/20
f 21/19/21 24/22/22 23/21/23 22/20/24
f 11/23/25 12/24/26 4/4/27 1/1/28
f 8/25/29 5/26/30 3/3/31 4/4/32
f 12/27/33 9/28/34 7/7/35 8/8/36
f 16/14/37 13/13/38 2/2/39 3/3/40
f 5/5/41 6/6/42 15/51/43 16/14/44
f 9/9/45 10/10/46 19/17/47 20/18/48
f 20/18/49 17/15/50 6/30/51 7/29/52
f 17/31/53 18/32/54 14/53/55 15/52/56
f 10/33/57 11/34/58 23/21/59 24/22/60
f 24/35/61 21/36/62 18/16/63 19/17/64
f 21/37/65 22/38/66 13/13/67 14/54/68
f 1/1/69 2/2/70 22/40/71 23/39/72
f 12/41/73 8/25/74 4/4/75
f 3/3/76 5/26/77 16/42/78
f 20/18/79 7/29/80 9/43/81
f 15/44/82 6/30/83 17/15/84
f 24/35/85 19/17/86 10/45/87
f 14/46/88 18/16/89 21/36/90
f 1/1/91 23/39/92 11/47/93
f 13/48/94 22/40/95 2/2/96
