# This file uses centimeters as units for non-parametric coordinates.

mtllib Proto_wall_02.mtl
g default
v -12.000000 -0.000000 12.000000
v 12.000000 -0.000000 12.000000
v -12.000000 0.000000 -12.000000
v 12.000000 0.000000 -12.000000
vt 0.000000 0.000000
vt 1.000000 0.000000
vt 0.000000 1.000000
vt 1.000000 1.000000
vn 0.000000 1.000000 0.000000
vn 0.000000 1.000000 0.000000
vn 0.000000 1.000000 0.000000
vn 0.000000 1.000000 0.000000
s off
g pPlane3
usemtl initialShadingGroup
f 1/1/1 2/2/2 4/4/3 3/3/4
