# This file uses centimeters as units for non-parametric coordinates.

v 0.383022 0.000000 -0.321394
v 0.086824 0.000000 -0.492404
v -0.250000 0.000000 -0.433013
v -0.469846 0.000000 -0.171010
v -0.469846 0.000000 0.171010
v -0.250000 0.000000 0.433013
v 0.086824 0.000000 0.492404
v 0.383022 0.000000 0.321394
v 0.500000 0.000000 0.000000
v 0.331707 0.250000 -0.278335
v 0.075192 0.250000 -0.426434
v -0.216506 0.250000 -0.375000
v -0.406899 0.250000 -0.148099
v -0.406899 0.250000 0.148099
v -0.216506 0.250000 0.375000
v 0.075192 0.250000 0.426434
v 0.331707 0.250000 0.278335
v 0.433013 0.250000 0.000000
v 0.191511 0.433013 -0.160697
v 0.043412 0.433013 -0.246202
v -0.125000 0.433013 -0.216506
v -0.234923 0.433013 -0.085505
v -0.234923 0.433013 0.085505
v -0.125000 0.433013 0.216506
v 0.043412 0.433013 0.246202
v 0.191511 0.433013 0.160697
v 0.250000 0.433013 0.000000
v 0.000000 0.500000 0.000000
vt 0.000000 0.000000
vt 0.111111 0.000000
vt 0.222222 0.000000
vt 0.333333 0.000000
vt 0.444444 0.000000
vt 0.555556 0.000000
vt 0.666667 0.000000
vt 0.777778 0.000000
vt 0.888889 0.000000
vt 1.000000 0.000000
vt 0.000000 0.333333
vt 0.111111 0.333333
vt 0.222222 0.333333
vt 0.333333 0.333333
vt 0.444444 0.333333
vt 0.555556 0.333333
vt 0.666667 0.333333
vt 0.777778 0.333333
vt 0.888889 0.333333
vt 1.000000 0.333333
vt 0.000000 0.666667
vt 0.111111 0.666667
vt 0.222222 0.666667
vt 0.333333 0.666667
vt 0.444444 0.666667
vt 0.555556 0.666667
vt 0.666667 0.666667
vt 0.777778 0.666667
vt 0.888889 0.666667
vt 1.000000 0.666667
vt 0.055556 1.000000
vt 0.166667 1.000000
vt 0.277778 1.000000
vt 0.388889 1.000000
vt 0.500000 1.000000
vt 0.611111 1.000000
vt 0.722222 1.000000
vt 0.833333 1.000000
vt 0.944444 1.000000
vn 0.484866 0.244169 -0.839813
vn 0.484867 0.244169 -0.839813
vn 0.484867 0.244169 -0.839813
vn 0.484867 0.244169 -0.839813
vn -0.168392 0.244169 -0.955000
vn -0.168392 0.244169 -0.955000
vn -0.168392 0.244169 -0.955000
vn -0.168392 0.244169 -0.955000
vn -0.742858 0.244169 -0.623332
vn -0.742858 0.244169 -0.623332
vn -0.742858 0.244169 -0.623332
vn -0.742858 0.244169 -0.623332
vn -0.969733 0.244169 -0.000000
vn -0.969733 0.244169 -0.000000
vn -0.969733 0.244169 -0.000000
vn -0.969733 0.244169 -0.000000
vn -0.742858 0.244169 0.623332
vn -0.742858 0.244169 0.623332
vn -0.742858 0.244169 0.623332
vn -0.742858 0.244169 0.623332
vn -0.168392 0.244169 0.955000
vn -0.168392 0.244169 0.955000
vn -0.168392 0.244169 0.955000
vn -0.168392 0.244169 0.955000
vn 0.484866 0.244169 0.839813
vn 0.484866 0.244169 0.839813
vn 0.484866 0.244169 0.839813
vn 0.484866 0.244169 0.839813
vn 0.911251 0.244169 0.331668
vn 0.911251 0.244169 0.331668
vn 0.911251 0.244169 0.331668
vn 0.911251 0.244169 0.331668
vn 0.911251 0.244169 -0.331668
vn 0.911251 0.244169 -0.331668
vn 0.911251 0.244169 -0.331668
vn 0.911251 0.244169 -0.331668
vn 0.364370 0.684791 -0.631107
vn 0.364370 0.684791 -0.631107
vn 0.364370 0.684791 -0.631107
vn 0.364370 0.684791 -0.631107
vn -0.126544 0.684791 -0.717668
vn -0.126544 0.684791 -0.717668
vn -0.126544 0.684791 -0.717668
vn -0.126544 0.684791 -0.717668
vn -0.558247 0.684791 -0.468425
vn -0.558247 0.684791 -0.468425
vn -0.558247 0.684791 -0.468425
vn -0.558247 0.684791 -0.468425
vn -0.728739 0.684791 -0.000000
vn -0.728739 0.684791 -0.000000
vn -0.728739 0.684791 -0.000000
vn -0.728739 0.684791 -0.000000
vn -0.558247 0.684791 0.468425
vn -0.558247 0.684791 0.468425
vn -0.558247 0.684791 0.468425
vn -0.558247 0.684791 0.468425
vn -0.126544 0.684791 0.717668
vn -0.126544 0.684791 0.717668
vn -0.126544 0.684791 0.717668
vn -0.126544 0.684791 0.717668
vn 0.364370 0.684791 0.631107
vn 0.364370 0.684791 0.631107
vn 0.364370 0.684791 0.631107
vn 0.364370 0.684791 0.631107
vn 0.684791 0.684791 0.249244
vn 0.684791 0.684791 0.249244
vn 0.684791 0.684791 0.249244
vn 0.684791 0.684791 0.249244
vn 0.684791 0.684791 -0.249243
vn 0.684791 0.684791 -0.249243
vn 0.684791 0.684791 -0.249243
vn 0.684791 0.684791 -0.249243
vn 0.137108 0.961668 -0.237478
vn 0.137108 0.961668 -0.237478
vn 0.137108 0.961668 -0.237478
vn -0.047617 0.961668 -0.270050
vn -0.047617 0.961668 -0.270050
vn -0.047617 0.961668 -0.270050
vn -0.210061 0.961668 -0.176262
vn -0.210061 0.961668 -0.176262
vn -0.210061 0.961668 -0.176262
vn -0.274215 0.961668 0.000000
vn -0.274215 0.961668 0.000000
vn -0.274215 0.961668 0.000000
vn -0.210061 0.961668 0.176262
vn -0.210061 0.961668 0.176262
vn -0.210061 0.961668 0.176262
vn -0.047617 0.961668 0.270050
vn -0.047617 0.961668 0.270050
vn -0.047617 0.961668 0.270050
vn 0.137108 0.961668 0.237478
vn 0.137108 0.961668 0.237478
vn 0.137108 0.961668 0.237478
vn 0.257678 0.961668 0.093787
vn 0.257678 0.961668 0.093787
vn 0.257678 0.961668 0.093787
vn 0.257678 0.961668 -0.093787
vn 0.257678 0.961668 -0.093787
vn 0.257678 0.961668 -0.093787
s off
f 1/1/1 2/2/2 11/12/3 10/11/4
f 2/2/5 3/3/6 12/13/7 11/12/8
f 3/3/9 4/4/10 13/14/11 12/13/12
f 4/4/13 5/5/14 14/15/15 13/14/16
f 5/5/17 6/6/18 15/16/19 14/15/20
f 6/6/21 7/7/22 16/17/23 15/16/24
f 7/7/25 8/8/26 17/18/27 16/17/28
f 8/8/29 9/9/30 18/19/31 17/18/32
f 9/9/33 1/10/34 10/20/35 18/19/36
f 10/11/37 11/12/38 20/22/39 19/21/40
f 11/12/41 12/13/42 21/23/43 20/22/44
f 12/13/45 13/14/46 22/24/47 21/23/48
f 13/14/49 14/15/50 23/25/51 22/24/52
f 14/15/53 15/16/54 24/26/55 23/25/56
f 15/16/57 16/17/58 25/27/59 24/26/60
f 16/17/61 17/18/62 26/28/63 25/27/64
f 17/18/65 18/19/66 27/29/67 26/28/68
f 18/19/69 10/20/70 19/30/71 27/29/72
f 19/21/73 20/22/74 28/31/75
f 20/22/76 21/23/77 28/32/78
f 21/23/79 22/24/80 28/33/81
f 22/24/82 23/25/83 28/34/84
f 23/25/85 24/26/86 28/35/87
f 24/26/88 25/27/89 28/36/90
f 25/27/91 26/28/92 28/37/93
f 26/28/94 27/29/95 28/38/96
f 27/29/97 19/30/98 28/39/99
