# This file uses centimeters as units for non-parametric coordinates.

v 0.651175 -0.707107 -0.076984
v 0.707107 -0.707107 0.000000
v 0.625189 -0.741038 0.000000
v 0.647643 0.000000 -0.484978
v 1.000000 0.000000 0.000000
v 0.454332 0.596125 -0.411188
v 0.504990 0.707107 -0.278190
v 0.707107 0.707107 0.000000
v 0.560771 0.767721 0.000000
v 0.569031 0.707107 0.190045
v 0.441341 0.000000 0.768928
v 0.510881 -0.707107 0.270081
v 0.412130 -0.093680 0.755726
v 0.510598 -0.717057 0.237408
v 0.352960 -0.025192 0.176612
vt 0.800000 0.250000
vt 0.800000 0.500000
vt 0.800000 0.750000
vt 0.811585 0.221038
vt 0.822895 0.250000
vt 0.822895 0.250000
vt 0.901987 0.500000
vt 0.901987 0.500000
vt 0.882733 0.750000
vt 0.909284 0.710762
vt 0.882733 0.750000
vt 0.820695 0.801737
vt 0.779305 0.801737
vt 0.743481 0.750000
vt 0.743481 0.750000
vt 0.638300 0.500000
vt 0.641077 0.466879
vt 0.638300 0.500000
vt 0.719678 0.250000
vt 0.725998 0.241507
vt 0.719678 0.250000
vt 0.788415 0.221038
vn 0.613279 -0.652191 -0.445573
vn 0.685040 -0.728505 0.000000
vn 0.382684 -0.923879 -0.000000
vn 0.809017 -0.000000 -0.587785
vn 1.000000 -0.000000 0.000000
vn 0.767092 0.317740 -0.557325
vn 0.613279 0.652191 -0.445573
vn 0.685040 0.728505 0.000000
vn 0.382683 0.923880 0.000000
vn 0.613279 0.652191 0.445573
vn 0.809017 0.000000 0.587785
vn 0.613279 -0.652191 0.445573
vn 0.767092 -0.317740 0.557325
vn 0.368698 -0.890115 0.267875
vn -0.988901 0.022387 -0.146883
vn -0.884109 -0.236836 -0.402814
vn -0.884109 -0.236836 -0.402814
vn -0.884109 -0.236836 -0.402814
vn -0.957579 -0.233072 -0.169470
vn -0.995616 -0.061591 -0.070395
vn -0.973727 -0.215355 0.074020
vn -0.993898 0.032542 0.105398
vn -0.951608 0.278393 0.130153
vn -0.951608 0.278393 0.130153
vn -0.951608 0.278393 0.130153
vn -0.951608 0.278393 0.130153
s 1
f 1/5/1 2/1/2 3/4/3
f 4/7/4 5/2/5 2/1/2 1/6/1
f 6/10/6 7/9/7 8/3/8 5/2/5 4/8/4
f 9/12/9 8/3/8 7/11/7
f 10/14/10 8/3/8 9/13/9
f 11/16/11 5/2/5 8/3/8 10/15/10
f 12/19/12 2/1/2 5/2/5 11/18/11 13/17/13
f 3/22/3 2/1/2 12/21/12 14/20/14
s 2
f 6//15 4//16 1//17 3//18 14//19 15//20
f 14//19 12//21 13//22 15//20
f 7//23 6//15 15//20 13//22 11//24 10//25 9//26
