# This file uses centimeters as units for non-parametric coordinates.

v -0.572061 0.707107 -0.415627
v -0.572061 0.707107 0.415627
v 0.000000 1.000000 0.000000
v 0.218508 0.707107 0.672499
v 0.218508 0.707107 -0.672499
v -0.713402 0.000000 -0.618853
v -0.680696 0.000000 -0.629479
v -0.704924 -0.010181 -0.618020
v -0.712502 0.288015 0.517663
v -0.777934 0.092754 -0.565203
v -0.437978 0.000000 0.708343
v 0.309017 0.000000 0.951057
v -0.240452 -0.248041 0.685125
v -0.148325 -0.298162 0.697399
v 0.293585 -0.120564 0.903561
v 0.412130 -0.093680 0.755726
v 0.441341 0.000000 0.768928
v 0.405066 -0.099627 0.762057
v 0.569031 0.707107 0.190045
v 0.560771 0.767721 0.000000
v 0.504990 0.707107 -0.278190
v 0.238524 0.550734 -0.734100
v 0.454332 0.596124 -0.411187
v -0.059831 0.159078 -0.775159
v 0.352960 -0.025192 0.176612
v -0.225843 -0.399554 0.091727
v -0.252106 -0.402912 0.015053
v -0.012298 -0.189312 -0.262331
v -0.254144 -0.402092 0.013581
vt 0.600000 0.500000
vt 0.000000 0.750000
vt 0.200000 0.750000
vt 0.400000 0.750000
vt 0.600000 0.750000
vt 1.000000 0.750000
vt 0.100000 1.000000
vt 0.300000 1.000000
vt 0.500000 1.000000
vt 0.700000 1.000000
vt 0.900000 1.000000
vt 0.181990 0.496400
vt 0.177045 0.500000
vt 0.182896 0.500000
vt 0.200000 0.532794
vt 0.376140 0.601829
vt 0.400000 0.601829
vt 0.466374 0.500000
vt 0.466374 0.500000
vt 0.600000 0.457374
vt 0.525015 0.394584
vt 0.507387 0.412304
vt 0.639745 0.464776
vt 0.609988 0.457374
vt 0.638300 0.500000
vt 0.641077 0.466879
vt 0.638300 0.500000
vt 0.743481 0.750000
vt 0.743481 0.750000
vt 0.779305 0.801737
vt 0.820695 0.801737
vt 0.882733 0.750000
vt 0.909284 0.710762
vt 0.882733 0.750000
vt 0.954376 0.694714
vt -0.000000 0.694714
vt 0.200000 0.532794
vt 0.182896 0.500000
vt 0.177045 0.500000
vt 0.062339 0.556242
vn -0.554209 0.728505 -0.402656
vn -0.554209 0.728505 0.402656
vn 0.000000 1.000000 -0.000000
vn 0.211689 0.728506 0.651512
vn 0.211689 0.728505 -0.651512
vn -0.309016 -0.000002 -0.951057
vn -0.309016 -0.000002 -0.951057
vn -0.293001 -0.317743 -0.901771
vn -0.747434 0.382683 0.543043
vn -0.747434 0.382684 -0.543043
vn -0.309017 0.000000 0.951057
vn 0.309017 -0.000000 0.951057
vn -0.293003 -0.317740 0.901771
vn -0.293003 -0.317740 0.901771
vn 0.285494 -0.382684 0.878662
vn 0.767092 -0.317740 0.557325
vn 0.809017 -0.000000 0.587785
vn 0.767092 -0.317740 0.557325
vn 0.613279 0.652191 0.445573
vn 0.382683 0.923880 0.000000
vn 0.613279 0.652191 -0.445573
vn 0.285495 0.382683 -0.878662
vn 0.767093 0.317739 -0.557325
vn -0.293003 0.317740 -0.901771
vn 0.951608 -0.278393 -0.130153
vn 0.951608 -0.278393 -0.130153
vn 0.951608 -0.278393 -0.130153
vn 0.951608 -0.278393 -0.130153
vn 0.798540 -0.582820 -0.150516
vn 0.786109 -0.566530 -0.247136
vn 0.867355 -0.409335 -0.283091
vn 0.445739 -0.894959 -0.019093
vn 0.146618 -0.987169 0.063250
vn 0.055622 -0.977818 -0.201936
vn 0.489507 -0.771138 -0.407097
vn 0.323397 -0.939148 0.115826
vn -0.090649 -0.980261 0.175701
vn -0.637193 -0.748260 0.184640
vn -0.454837 -0.887145 -0.078083
vn -0.765046 -0.624099 0.158765
vn -0.765046 -0.624099 0.158765
vn -0.416184 -0.875339 -0.246116
vn -0.765046 -0.624099 0.158765
vn -0.765046 -0.624099 0.158765
vn 0.077823 -0.821300 -0.565163
vn 0.441359 -0.722708 -0.531879
vn 0.741786 -0.520778 -0.422545
s 1
f 1/3/1 2/4/2 3/8/3
f 2/4/2 4/5/4 3/9/3
f 5/2/5 1/3/1 3/7/3
f 6/14/6 7/13/7 8/12/8
f 9/16/9 2/4/2 1/3/1 10/15/10
f 11/18/11 12/1/12 4/5/4 2/4/2 9/17/9
f 13/22/13 14/21/14 15/20/15 12/1/12 11/19/11
f 16/26/16 17/25/17 12/1/12 15/24/15 18/23/18
f 19/28/19 4/5/4 12/1/12 17/27/17
f 20/30/20 3/10/3 4/5/4 19/29/19
f 21/32/21 5/6/5 3/11/3 20/31/20
f 22/35/22 5/6/5 21/34/21 23/33/23
f 24/40/24 7/39/7 6/38/6 10/37/10 1/3/1 5/2/5 22/36/22
s 2
f 21//25 20//26 19//27 17//28 16//29 25//30 23//31
f 16//29 18//32 26//33 27//34 28//35 25//30
f 18//32 15//36 14//37 26//33
f 14//37 13//38 29//39 27//34 26//33
f 10//40 6//41 8//42 29//39 13//38 11//43 9//44
f 8//42 7//45 24//46 28//35 27//34 29//39
f 22//47 23//31 25//30 28//35 24//46
