# This file uses centimeters as units for non-parametric coordinates.

v 0.181243 -0.707107 -0.660390
v 0.218508 -0.707107 -0.672499
v 0.184750 -0.752357 -0.568601
v -0.005518 0.000000 -0.848858
v 0.309017 0.000000 -0.951057
v -0.059831 0.159078 -0.775159
v 0.238524 0.550734 -0.734100
v 0.647643 0.000000 -0.484978
v 0.454332 0.596125 -0.411188
v 0.651175 -0.707107 -0.076984
v 0.322143 -0.866564 0.000000
v 0.625189 -0.741038 0.000000
v 0.510598 -0.717057 0.237408
v 0.178271 -0.876884 -0.163732
v -0.012298 -0.189312 -0.262331
v 0.352960 -0.025192 0.176612
vt 0.000000 0.250000
vt 1.000000 0.250000
vt 0.000000 0.500000
vt 1.000000 0.500000
vt 0.015449 0.211376
vt 0.009427 0.250000
vt 0.009427 0.250000
vt 0.056266 0.500000
vt 0.056266 0.500000
vt -0.000000 0.694714
vt 0.062339 0.556242
vt 0.909284 0.710762
vt 1.000000 0.694714
vt 0.901987 0.500000
vt 0.901987 0.500000
vt 0.822895 0.250000
vt 0.725998 0.241507
vt 0.788415 0.221038
vt 0.745558 0.113895
vt 0.906659 0.105087
vt 0.854442 0.113895
vt 0.811585 0.221038
vt 0.822895 0.250000
vt 0.984551 0.211376
vn -0.234252 -0.652191 -0.720953
vn 0.211689 -0.728506 -0.651512
vn 0.118255 -0.923880 -0.363953
vn -0.309017 -0.000000 -0.951057
vn 0.309017 -0.000000 -0.951056
vn -0.293003 0.317740 -0.901771
vn 0.285495 0.382683 -0.878662
vn 0.809017 -0.000000 -0.587785
vn 0.767092 0.317740 -0.557325
vn 0.613279 -0.652191 -0.445573
vn 0.382684 -0.923880 -0.000000
vn 0.382684 -0.923880 -0.000000
vn 0.368698 -0.890115 0.267874
vn 0.368698 -0.890115 -0.267875
vn -0.741786 0.520778 0.422545
vn -0.973049 0.138564 0.184323
vn -0.926625 0.049490 0.372714
vn -0.347715 0.374103 0.859733
vn 0.126021 0.670836 0.730820
vn -0.954901 -0.279167 -0.101144
vn -0.954901 -0.279167 -0.101144
vn -0.928001 -0.213413 0.305399
vn -0.954901 -0.279167 -0.101144
vn -0.743040 -0.111309 0.659925
vn 0.130694 0.116295 0.984578
vn 0.884109 0.236836 0.402814
vn 0.884109 0.236836 0.402814
vn 0.884109 0.236836 0.402814
s 1
f 1/6/1 2/1/2 3/5/3
f 4/8/4 5/3/5 2/1/2 1/7/1
f 6/11/6 7/10/7 5/3/5 4/9/4
f 8/14/8 5/4/5 7/13/7 9/12/9
f 10/16/10 2/2/2 5/4/5 8/15/8
f 11/19/11 12/18/12 13/17/13
f 3/24/3 2/2/2 10/23/10 12/22/12 11/21/11 14/20/14
s 2
f 7//15 6//16 15//17 16//18 9//19
f 1//20 3//21 14//22 15//17 6//16 4//23
f 14//22 11//24 13//25 16//18 15//17
f 12//26 10//27 8//28 9//19 16//18 13//25
