# This file uses centimeters as units for non-parametric coordinates.

v -0.777934 0.092755 -0.565203
v -0.809017 0.000000 -0.587785
v -0.809017 0.000000 0.587785
v -0.712502 0.288015 0.517663
v -0.713402 0.000000 -0.618853
v -0.704924 -0.010181 -0.618020
v -0.754122 -0.163814 -0.547902
v -0.672623 -0.407016 0.488690
v -0.626650 -0.544206 -0.178449
v -0.437978 0.000000 0.708343
v -0.240452 -0.248041 0.685125
v -0.254144 -0.402092 0.013581
vt 0.200000 0.500000
vt 0.400000 0.500000
vt 0.376140 0.601829
vt 0.200000 0.532794
vt 0.200000 0.532794
vt 0.182896 0.500000
vt 0.182896 0.500000
vt 0.200000 0.442083
vt 0.181990 0.496400
vt 0.266608 0.307594
vt 0.213571 0.442083
vt 0.400000 0.356098
vt 0.507387 0.412304
vt 0.400000 0.356098
vt 0.466374 0.500000
vt 0.466374 0.500000
vt 0.400000 0.601829
vn -0.747434 0.382683 -0.543043
vn -0.809017 -0.000000 -0.587785
vn -0.809017 0.000000 0.587785
vn -0.747434 0.382684 0.543043
vn -0.309017 -0.000001 -0.951057
vn -0.293003 -0.317740 -0.901771
vn -0.747434 -0.382683 -0.543043
vn -0.747434 -0.382683 0.543043
vn -0.948178 -0.317740 -0.000000
vn -0.309017 -0.000000 0.951057
vn -0.293003 -0.317740 0.901771
vn 0.464562 -0.840355 -0.279258
vn 0.539759 -0.486425 -0.687059
vn 0.835849 0.088193 -0.541829
vn 0.834786 -0.432840 -0.340268
vn 0.765046 0.624098 -0.158765
vn 0.765046 0.624098 -0.158765
vn 0.765046 0.624098 -0.158765
vn 0.765046 0.624098 -0.158765
vn 0.952559 -0.300309 0.049468
vn 0.251286 -0.944512 0.211545
s 1
f 1/4/1 2/1/2 3/2/3 4/3/4
f 5/6/5 2/1/2 1/5/1
f 6/9/6 7/8/7 2/1/2 5/7/5
f 8/12/8 3/2/3 2/1/2 7/11/7 9/10/9
f 10/15/10 3/2/3 8/14/8 11/13/11
f 4/17/4 3/2/3 10/16/10
s 2
f 9//12 7//13 6//14 12//15
f 6//14 5//16 1//17 4//18 10//19 11//20 12//15
f 11//20 8//21 9//12 12//15
