# This file uses centimeters as units for non-parametric coordinates.

v -0.274805 -0.707107 0.512211
v -0.572061 -0.707107 0.415627
v -0.330813 -0.830625 0.240350
v -0.148325 -0.298162 0.697399
v -0.240452 -0.248041 0.685126
v -0.672623 -0.407016 0.488690
v -0.572061 -0.707107 -0.101895
v -0.626650 -0.544206 -0.178449
v -0.343143 -0.824312 0.070011
v -0.252106 -0.402912 0.015053
v -0.225843 -0.399554 0.091727
v -0.247649 -0.462048 0.033381
v -0.254144 -0.402092 0.013581
vt 0.400000 0.250000
vt 0.442172 0.144571
vt 0.475201 0.250000
vt 0.475201 0.250000
vt 0.400000 0.356098
vt 0.507387 0.412304
vt 0.525015 0.394584
vt 0.266608 0.307594
vt 0.400000 0.356098
vt 0.275484 0.250000
vt 0.275484 0.250000
vt 0.357828 0.144571
vt 0.316845 0.149959
vn -0.234252 -0.652191 0.720953
vn -0.554209 -0.728505 0.402656
vn -0.309597 -0.923880 0.224936
vn -0.293003 -0.317740 0.901771
vn -0.293003 -0.317740 0.901771
vn -0.747434 -0.382683 0.543043
vn -0.758055 -0.652191 0.000000
vn -0.948178 -0.317740 0.000000
vn -0.455735 -0.890115 0.000000
vn 0.795063 0.245281 -0.554718
vn 0.945653 0.220105 -0.239364
vn 0.875750 -0.184304 -0.446200
vn 0.200929 0.559690 -0.803975
vn -0.251286 0.944512 -0.211545
vn 0.127934 0.966103 -0.224230
vn 0.349584 0.734363 -0.581810
vn 0.912187 0.368856 -0.178495
vn 0.961915 -0.261586 -0.079322
vn 0.961915 -0.261586 -0.079322
vn 0.819871 -0.267317 -0.506313
vn 0.511778 -0.218908 -0.830760
s 1
f 1/3/1 2/1/2 3/2/3
f 4/7/4 5/6/5 6/5/6 2/1/2 1/4/1
f 7/10/7 2/1/2 6/9/6 8/8/8
f 9/13/9 3/12/3 2/1/2 7/11/7
s 2
f 10//10 11//11 12//12
f 8//13 6//14 5//15 13//16
f 5//15 4//17 11//11 10//10 13//16
f 4//17 1//18 3//19 9//20 12//12 11//11
f 7//21 8//13 13//16 10//10 12//12 9//20
